<mxfile host="65bd71144e">
    <diagram id="bVPyLYyVPvUQh3DSvVmb" name="Page-1">
        <mxGraphModel dx="1954" dy="2949" grid="1" gridSize="10" guides="1" tooltips="1" connect="1" arrows="1" fold="1" page="1" pageScale="1" pageWidth="827" pageHeight="1169" math="0" shadow="0">
            <root>
                <mxCell id="0"/>
                <mxCell id="1" parent="0"/>
                <mxCell id="2" value="PANEL&lt;br&gt;LOGOWANIA&lt;br&gt;LUB REJESTRACJI&lt;br&gt;" style="rounded=0;whiteSpace=wrap;html=1;fillColor=#6d8764;fontColor=#ffffff;strokeColor=#3A5431;" parent="1" vertex="1">
                    <mxGeometry x="354" y="-1290" width="120" height="60" as="geometry"/>
                </mxCell>
                <mxCell id="3" value="Licencja:&lt;br&gt;Rejestracja i Logowanie do panelu jeżeli licencja jest wykupiona, w prawym górnym rogu aplikacji liczba aktualnie zalogowanych użytkowników / ilość licencji" style="text;html=1;strokeColor=none;fillColor=none;align=center;verticalAlign=middle;whiteSpace=wrap;rounded=0;" parent="1" vertex="1">
                    <mxGeometry x="70" y="-1145" width="60" height="30" as="geometry"/>
                </mxCell>
                <mxCell id="4" value="" style="endArrow=none;dashed=1;html=1;dashPattern=1 3;strokeWidth=2;entryX=0;entryY=0.5;entryDx=0;entryDy=0;" parent="1" target="2" edge="1">
                    <mxGeometry width="50" height="50" relative="1" as="geometry">
                        <mxPoint x="140" y="-1130" as="sourcePoint"/>
                        <mxPoint x="460" y="-1000" as="targetPoint"/>
                    </mxGeometry>
                </mxCell>
                <mxCell id="5" value="GŁÓWNY PANEL&lt;br&gt;ZARZĄDZANIA MAGAYZNEM" style="whiteSpace=wrap;html=1;aspect=fixed;fillColor=#008a00;fontColor=#ffffff;strokeColor=#005700;" parent="1" vertex="1">
                    <mxGeometry x="344" y="-1050" width="140" height="140" as="geometry"/>
                </mxCell>
                <mxCell id="6" value="" style="endArrow=classic;html=1;exitX=0.5;exitY=1;exitDx=0;exitDy=0;entryX=0.5;entryY=0;entryDx=0;entryDy=0;" parent="1" source="2" target="5" edge="1">
                    <mxGeometry width="50" height="50" relative="1" as="geometry">
                        <mxPoint x="410" y="-900" as="sourcePoint"/>
                        <mxPoint x="460" y="-950" as="targetPoint"/>
                    </mxGeometry>
                </mxCell>
                <mxCell id="7" value="WYSTAWIANIE FV / PARAGONÓW / PROFORM" style="rounded=1;whiteSpace=wrap;html=1;fillColor=#e3c800;fontColor=#000000;strokeColor=#B09500;" parent="1" vertex="1">
                    <mxGeometry x="140" y="-945" width="120" height="60" as="geometry"/>
                </mxCell>
                <mxCell id="8" value="" style="endArrow=classic;html=1;exitX=0;exitY=0.5;exitDx=0;exitDy=0;entryX=0.5;entryY=0;entryDx=0;entryDy=0;" parent="1" source="5" target="7" edge="1">
                    <mxGeometry width="50" height="50" relative="1" as="geometry">
                        <mxPoint x="410" y="-800" as="sourcePoint"/>
                        <mxPoint x="460" y="-850" as="targetPoint"/>
                    </mxGeometry>
                </mxCell>
                <mxCell id="9" value="USTAWIENIA PROGRAMU" style="rounded=1;whiteSpace=wrap;html=1;fillColor=#e3c800;fontColor=#000000;strokeColor=#B09500;" parent="1" vertex="1">
                    <mxGeometry x="274" y="-880" width="120" height="60" as="geometry"/>
                </mxCell>
                <mxCell id="10" value="" style="endArrow=classic;html=1;exitX=0;exitY=0.75;exitDx=0;exitDy=0;entryX=0.5;entryY=0;entryDx=0;entryDy=0;" parent="1" source="5" target="9" edge="1">
                    <mxGeometry width="50" height="50" relative="1" as="geometry">
                        <mxPoint x="410" y="-800" as="sourcePoint"/>
                        <mxPoint x="460" y="-850" as="targetPoint"/>
                    </mxGeometry>
                </mxCell>
                <mxCell id="11" value="PRZEGLĄD TOWARÓW NA MAGAZYNIE" style="rounded=1;whiteSpace=wrap;html=1;fillColor=#e3c800;fontColor=#000000;strokeColor=#B09500;" parent="1" vertex="1">
                    <mxGeometry x="425" y="-870" width="120" height="60" as="geometry"/>
                </mxCell>
                <mxCell id="12" value="" style="endArrow=classic;html=1;exitX=0.5;exitY=1;exitDx=0;exitDy=0;entryX=0.5;entryY=0;entryDx=0;entryDy=0;" parent="1" source="5" target="11" edge="1">
                    <mxGeometry width="50" height="50" relative="1" as="geometry">
                        <mxPoint x="410" y="-800" as="sourcePoint"/>
                        <mxPoint x="460" y="-850" as="targetPoint"/>
                    </mxGeometry>
                </mxCell>
                <mxCell id="13" value="STALI KLIENCI&lt;br&gt;+ REKLAMACJE (ROZPATRZONE / NIE ROZPATRZONE / W TRAKCIE ROZPATRYWANIA I DO NICH WERDYK CZY REKLAMACJA ZAAKACEPTOWANA CZY NIE I UZASADNIENIE" style="rounded=1;whiteSpace=wrap;html=1;fillColor=#e3c800;fontColor=#000000;strokeColor=#B09500;" parent="1" vertex="1">
                    <mxGeometry x="655" y="-870" width="120" height="170" as="geometry"/>
                </mxCell>
                <mxCell id="14" value="" style="endArrow=classic;html=1;exitX=1;exitY=0.75;exitDx=0;exitDy=0;entryX=0.5;entryY=0;entryDx=0;entryDy=0;" parent="1" source="5" target="13" edge="1">
                    <mxGeometry width="50" height="50" relative="1" as="geometry">
                        <mxPoint x="410" y="-800" as="sourcePoint"/>
                        <mxPoint x="460" y="-850" as="targetPoint"/>
                    </mxGeometry>
                </mxCell>
                <mxCell id="15" value="PODGLĄD FV / PARAGONÓW (SPRZEDAŻ)" style="rounded=1;whiteSpace=wrap;html=1;fillColor=#e3c800;fontColor=#000000;strokeColor=#B09500;" parent="1" vertex="1">
                    <mxGeometry x="860" y="-880" width="120" height="60" as="geometry"/>
                </mxCell>
                <mxCell id="16" value="" style="endArrow=classic;html=1;exitX=1;exitY=0.5;exitDx=0;exitDy=0;entryX=0.5;entryY=0;entryDx=0;entryDy=0;" parent="1" source="5" target="15" edge="1">
                    <mxGeometry width="50" height="50" relative="1" as="geometry">
                        <mxPoint x="410" y="-800" as="sourcePoint"/>
                        <mxPoint x="460" y="-850" as="targetPoint"/>
                    </mxGeometry>
                </mxCell>
                <mxCell id="17" value="ZAKUPY (TOWARÓW)&lt;br&gt;+ WYNEGOCJONOWANE KOSZTY WYSYŁKI PACZKI / PALETY / TRANSPORT WŁASNY I DOSTĘPNOŚĆ OD KG DO KG Z WYMIARAMI" style="rounded=1;whiteSpace=wrap;html=1;fillColor=#e3c800;fontColor=#000000;strokeColor=#B09500;" parent="1" vertex="1">
                    <mxGeometry x="-330" y="-870" width="130" height="150" as="geometry"/>
                </mxCell>
                <mxCell id="18" value="" style="endArrow=classic;html=1;exitX=0;exitY=0.25;exitDx=0;exitDy=0;entryX=0.575;entryY=-0.067;entryDx=0;entryDy=0;entryPerimeter=0;" parent="1" source="5" target="17" edge="1">
                    <mxGeometry width="50" height="50" relative="1" as="geometry">
                        <mxPoint x="410" y="-860" as="sourcePoint"/>
                        <mxPoint x="460" y="-910" as="targetPoint"/>
                    </mxGeometry>
                </mxCell>
                <mxCell id="19" value="POMOC (KONTAKT STWÓRCAMI SERWISU)" style="rounded=1;whiteSpace=wrap;html=1;fillColor=#e3c800;fontColor=#000000;strokeColor=#B09500;" parent="1" vertex="1">
                    <mxGeometry x="1121" y="-970" width="120" height="60" as="geometry"/>
                </mxCell>
                <mxCell id="20" value="" style="endArrow=classic;html=1;exitX=1;exitY=0.25;exitDx=0;exitDy=0;entryX=0.5;entryY=0;entryDx=0;entryDy=0;" parent="1" source="5" target="19" edge="1">
                    <mxGeometry width="50" height="50" relative="1" as="geometry">
                        <mxPoint x="410" y="-860" as="sourcePoint"/>
                        <mxPoint x="460" y="-910" as="targetPoint"/>
                    </mxGeometry>
                </mxCell>
                <mxCell id="21" value="PRZELOGOWANIE UZYTKOWNIKÓW" style="ellipse;whiteSpace=wrap;html=1;fillColor=#6d8764;fontColor=#ffffff;strokeColor=#3A5431;" parent="1" vertex="1">
                    <mxGeometry x="580" y="-1170" width="120" height="80" as="geometry"/>
                </mxCell>
                <mxCell id="22" value="" style="endArrow=classic;startArrow=classic;html=1;exitX=1;exitY=0.5;exitDx=0;exitDy=0;entryX=0;entryY=0.5;entryDx=0;entryDy=0;" parent="1" source="2" target="21" edge="1">
                    <mxGeometry width="50" height="50" relative="1" as="geometry">
                        <mxPoint x="410" y="-970" as="sourcePoint"/>
                        <mxPoint x="460" y="-1020" as="targetPoint"/>
                    </mxGeometry>
                </mxCell>
                <mxCell id="23" value="RAPORTY, WYKRESY, STATYSTYKI" style="rounded=1;whiteSpace=wrap;html=1;fillColor=#e3c800;fontColor=#000000;strokeColor=#B09500;" parent="1" vertex="1">
                    <mxGeometry x="-534" y="-910" width="120" height="60" as="geometry"/>
                </mxCell>
                <mxCell id="25" value="TREND / SEZONOWOŚĆ ASORTYMENTU" style="rounded=1;whiteSpace=wrap;html=1;fillColor=#e3c800;fontColor=#000000;strokeColor=#B09500;" parent="1" vertex="1">
                    <mxGeometry x="1387.5" y="-1030" width="120" height="60" as="geometry"/>
                </mxCell>
                <mxCell id="26" value="" style="endArrow=classic;html=1;exitX=1;exitY=0;exitDx=0;exitDy=0;entryX=0;entryY=0.5;entryDx=0;entryDy=0;" parent="1" source="5" target="25" edge="1">
                    <mxGeometry width="50" height="50" relative="1" as="geometry">
                        <mxPoint x="410" y="-790" as="sourcePoint"/>
                        <mxPoint x="460" y="-840" as="targetPoint"/>
                    </mxGeometry>
                </mxCell>
                <mxCell id="28" value="" style="endArrow=classic;html=1;exitX=0.5;exitY=1;exitDx=0;exitDy=0;entryX=0.5;entryY=0;entryDx=0;entryDy=0;" parent="1" source="23" target="30" edge="1">
                    <mxGeometry width="50" height="50" relative="1" as="geometry">
                        <mxPoint x="410" y="-810" as="sourcePoint"/>
                        <mxPoint x="-80" y="-730" as="targetPoint"/>
                    </mxGeometry>
                </mxCell>
                <mxCell id="30" value="RAPORT SPRZEDAŻY W CIĄGU DANEGO DNIA / MIESIĄCA / ROKU&lt;br&gt;&lt;br&gt;( ZAPIS W BAZIE DANYCH &amp;amp; ODCZYT)" style="whiteSpace=wrap;html=1;aspect=fixed;" parent="1" vertex="1">
                    <mxGeometry x="-539" y="-800" width="130" height="130" as="geometry"/>
                </mxCell>
                <mxCell id="31" value="" style="endArrow=classic;startArrow=classic;html=1;entryX=0.5;entryY=1;entryDx=0;entryDy=0;exitX=0.5;exitY=0;exitDx=0;exitDy=0;" parent="1" source="32" target="30" edge="1">
                    <mxGeometry width="50" height="50" relative="1" as="geometry">
                        <mxPoint x="-75" y="-520" as="sourcePoint"/>
                        <mxPoint x="450" y="-520" as="targetPoint"/>
                    </mxGeometry>
                </mxCell>
                <mxCell id="32" value="WYKRESY ( PANDAS / SEABORN / MATPLOTLIB / NUMPY )&lt;br&gt;&lt;br&gt;MOŻLIWOŚĆ PORÓWNANIA Z ZESZŁYM ROKIEM / DNIEM ROK TEMU LUB MIESIĄCEM" style="whiteSpace=wrap;html=1;aspect=fixed;" parent="1" vertex="1">
                    <mxGeometry x="-544" y="-620" width="140" height="140" as="geometry"/>
                </mxCell>
                <mxCell id="33" value="MOŻLIWOŚĆ ZAPISU DO PLIKU / DO WYDRUKU / DO PRZESŁANIA NA EMAIL DANEGO UŻYTKOWNIKA" style="whiteSpace=wrap;html=1;aspect=fixed;" parent="1" vertex="1">
                    <mxGeometry x="-534" y="-400" width="120" height="120" as="geometry"/>
                </mxCell>
                <mxCell id="34" value="" style="endArrow=classic;html=1;exitX=0.5;exitY=1;exitDx=0;exitDy=0;entryX=0.5;entryY=0;entryDx=0;entryDy=0;" parent="1" source="32" target="33" edge="1">
                    <mxGeometry width="50" height="50" relative="1" as="geometry">
                        <mxPoint x="400" y="-400" as="sourcePoint"/>
                        <mxPoint x="450" y="-450" as="targetPoint"/>
                    </mxGeometry>
                </mxCell>
                <mxCell id="35" value="IKONA APLIKACJI NA DESKTOPIE + NAZWA APLIKACJI" style="shape=note;whiteSpace=wrap;html=1;backgroundOutline=1;darkOpacity=0.05;fillColor=#e51400;fontColor=#ffffff;strokeColor=#B20000;" parent="1" vertex="1">
                    <mxGeometry x="374" y="-1440" width="80" height="100" as="geometry"/>
                </mxCell>
                <mxCell id="36" value="" style="shape=flexArrow;endArrow=classic;html=1;exitX=0.5;exitY=1;exitDx=0;exitDy=0;exitPerimeter=0;fillColor=#e51400;strokeColor=#B20000;" parent="1" source="35" target="2" edge="1">
                    <mxGeometry width="50" height="50" relative="1" as="geometry">
                        <mxPoint x="450" y="-1140" as="sourcePoint"/>
                        <mxPoint x="500" y="-1190" as="targetPoint"/>
                    </mxGeometry>
                </mxCell>
                <mxCell id="37" value="" style="endArrow=classic;startArrow=classic;html=1;exitX=0.5;exitY=0;exitDx=0;exitDy=0;entryX=0.5;entryY=1;entryDx=0;entryDy=0;" parent="1" source="33" target="32" edge="1">
                    <mxGeometry width="50" height="50" relative="1" as="geometry">
                        <mxPoint x="250" y="-540" as="sourcePoint"/>
                        <mxPoint x="300" y="-590" as="targetPoint"/>
                    </mxGeometry>
                </mxCell>
                <mxCell id="38" value="WPROWADZANIE FAKTURY ZAKUPOWEJ" style="whiteSpace=wrap;html=1;aspect=fixed;" parent="1" vertex="1">
                    <mxGeometry x="-370" y="-680" width="120" height="120" as="geometry"/>
                </mxCell>
                <mxCell id="39" value="WYNEGOCJOWANE KOSZTY WYSYŁKI" style="whiteSpace=wrap;html=1;aspect=fixed;" parent="1" vertex="1">
                    <mxGeometry x="-220" y="-680" width="120" height="120" as="geometry"/>
                </mxCell>
                <mxCell id="40" value="" style="endArrow=classic;html=1;exitX=0.25;exitY=1;exitDx=0;exitDy=0;entryX=0.5;entryY=0;entryDx=0;entryDy=0;" parent="1" source="17" target="38" edge="1">
                    <mxGeometry width="50" height="50" relative="1" as="geometry">
                        <mxPoint x="250" y="-540" as="sourcePoint"/>
                        <mxPoint x="300" y="-590" as="targetPoint"/>
                    </mxGeometry>
                </mxCell>
                <mxCell id="41" value="" style="endArrow=classic;html=1;exitX=0.75;exitY=1;exitDx=0;exitDy=0;entryX=0.5;entryY=0;entryDx=0;entryDy=0;" parent="1" source="17" target="39" edge="1">
                    <mxGeometry width="50" height="50" relative="1" as="geometry">
                        <mxPoint x="250" y="-540" as="sourcePoint"/>
                        <mxPoint x="300" y="-590" as="targetPoint"/>
                        <Array as="points">
                            <mxPoint x="-190" y="-700"/>
                        </Array>
                    </mxGeometry>
                </mxCell>
                <mxCell id="42" value="SEKCJA 1" style="text;html=1;strokeColor=#314354;fillColor=#647687;align=center;verticalAlign=middle;whiteSpace=wrap;rounded=0;fontColor=#ffffff;" parent="1" vertex="1">
                    <mxGeometry x="-530" y="-930" width="60" height="30" as="geometry"/>
                </mxCell>
                <mxCell id="45" value="SEKCJA 3" style="text;html=1;strokeColor=#314354;fillColor=#647687;align=center;verticalAlign=middle;whiteSpace=wrap;rounded=0;fontColor=#ffffff;" parent="1" vertex="1">
                    <mxGeometry x="150" y="-970" width="60" height="30" as="geometry"/>
                </mxCell>
                <mxCell id="46" value="SEKCJA 2" style="text;html=1;strokeColor=#314354;fillColor=#647687;align=center;verticalAlign=middle;whiteSpace=wrap;rounded=0;fontColor=#ffffff;" parent="1" vertex="1">
                    <mxGeometry x="-320" y="-900" width="60" height="30" as="geometry"/>
                </mxCell>
                <mxCell id="47" value="SEKCJA 4" style="text;html=1;strokeColor=#314354;fillColor=#647687;align=center;verticalAlign=middle;whiteSpace=wrap;rounded=0;fontColor=#ffffff;" parent="1" vertex="1">
                    <mxGeometry x="285.75" y="-905" width="60" height="30" as="geometry"/>
                </mxCell>
                <mxCell id="48" value="SEKCJA 5" style="text;html=1;strokeColor=#314354;fillColor=#647687;align=center;verticalAlign=middle;whiteSpace=wrap;rounded=0;fontColor=#ffffff;" parent="1" vertex="1">
                    <mxGeometry x="484" y="-895" width="60" height="30" as="geometry"/>
                </mxCell>
                <mxCell id="49" value="SEKCJA 6" style="text;html=1;strokeColor=#314354;fillColor=#647687;align=center;verticalAlign=middle;whiteSpace=wrap;rounded=0;fontColor=#ffffff;" parent="1" vertex="1">
                    <mxGeometry x="710" y="-895" width="60" height="30" as="geometry"/>
                </mxCell>
                <mxCell id="50" value="SEKCJA 7" style="text;html=1;strokeColor=#314354;fillColor=#647687;align=center;verticalAlign=middle;whiteSpace=wrap;rounded=0;fontColor=#ffffff;" parent="1" vertex="1">
                    <mxGeometry x="900" y="-910" width="60" height="30" as="geometry"/>
                </mxCell>
                <mxCell id="51" value="SEKCJA 9" style="text;html=1;strokeColor=#314354;fillColor=#647687;align=center;verticalAlign=middle;whiteSpace=wrap;rounded=0;fontColor=#ffffff;" parent="1" vertex="1">
                    <mxGeometry x="1170" y="-1000" width="60" height="30" as="geometry"/>
                </mxCell>
                <mxCell id="52" value="SEKCJA 10" style="text;html=1;strokeColor=#314354;fillColor=#647687;align=center;verticalAlign=middle;whiteSpace=wrap;rounded=0;fontColor=#ffffff;" parent="1" vertex="1">
                    <mxGeometry x="1412.5" y="-1060" width="70" height="30" as="geometry"/>
                </mxCell>
                <mxCell id="53" value="POPRAWIA STAN MAGAZYNOWY DANEGO TOWARY" style="shape=step;perimeter=stepPerimeter;whiteSpace=wrap;html=1;fixedSize=1;" parent="1" vertex="1">
                    <mxGeometry x="-380" y="-525" width="140" height="110" as="geometry"/>
                </mxCell>
                <mxCell id="54" value="" style="endArrow=classic;html=1;exitX=0.5;exitY=1;exitDx=0;exitDy=0;" parent="1" source="38" target="53" edge="1">
                    <mxGeometry width="50" height="50" relative="1" as="geometry">
                        <mxPoint x="80" y="-470" as="sourcePoint"/>
                        <mxPoint x="130" y="-520" as="targetPoint"/>
                    </mxGeometry>
                </mxCell>
                <mxCell id="55" value="POPRAWIA KOSZT ZAKUPU DANEGO TOWARU" style="shape=step;perimeter=stepPerimeter;whiteSpace=wrap;html=1;fixedSize=1;" parent="1" vertex="1">
                    <mxGeometry x="-385" y="-380" width="150" height="110" as="geometry"/>
                </mxCell>
                <mxCell id="56" value="" style="endArrow=classic;html=1;exitX=0.5;exitY=1;exitDx=0;exitDy=0;entryX=0.5;entryY=0;entryDx=0;entryDy=0;" parent="1" source="53" target="55" edge="1">
                    <mxGeometry width="50" height="50" relative="1" as="geometry">
                        <mxPoint x="80" y="-400" as="sourcePoint"/>
                        <mxPoint x="130" y="-450" as="targetPoint"/>
                    </mxGeometry>
                </mxCell>
                <mxCell id="57" value="AKTUALIZUJE&amp;nbsp; PO KODZIE EAN W BAZIE DANYCH ( CZYLI RÓWNIEZ W MAGAZYNIE)" style="shape=document;whiteSpace=wrap;html=1;boundedLbl=1;size=0.35714285714285715;" parent="1" vertex="1">
                    <mxGeometry x="-395" y="-200" width="170" height="140" as="geometry"/>
                </mxCell>
                <mxCell id="58" value="" style="shape=flexArrow;endArrow=classic;html=1;exitX=0.5;exitY=1;exitDx=0;exitDy=0;entryX=0.5;entryY=0;entryDx=0;entryDy=0;fillColor=#e51400;strokeColor=#B20000;" parent="1" source="55" target="57" edge="1">
                    <mxGeometry width="50" height="50" relative="1" as="geometry">
                        <mxPoint x="80" y="-330" as="sourcePoint"/>
                        <mxPoint x="130" y="-380" as="targetPoint"/>
                    </mxGeometry>
                </mxCell>
                <mxCell id="59" value="" style="shape=flexArrow;endArrow=classic;html=1;exitX=0.25;exitY=1;exitDx=0;exitDy=0;entryX=0.5;entryY=0;entryDx=0;entryDy=0;fillColor=#e51400;strokeColor=#B20000;" parent="1" source="17" target="38" edge="1">
                    <mxGeometry width="50" height="50" relative="1" as="geometry">
                        <mxPoint x="80" y="-530" as="sourcePoint"/>
                        <mxPoint x="130" y="-580" as="targetPoint"/>
                    </mxGeometry>
                </mxCell>
                <mxCell id="60" value="" style="shape=flexArrow;endArrow=classic;html=1;exitX=0.75;exitY=1;exitDx=0;exitDy=0;fillColor=#e51400;strokeColor=#B20000;width=1.1764705882352942;endSize=14.105882352941178;entryX=0.5;entryY=0;entryDx=0;entryDy=0;" parent="1" source="17" target="39" edge="1">
                    <mxGeometry width="50" height="50" relative="1" as="geometry">
                        <mxPoint x="80" y="-530" as="sourcePoint"/>
                        <mxPoint x="70" y="-680" as="targetPoint"/>
                    </mxGeometry>
                </mxCell>
                <mxCell id="61" value="" style="shape=flexArrow;endArrow=classic;html=1;exitX=0.5;exitY=1;exitDx=0;exitDy=0;entryX=0.5;entryY=0;entryDx=0;entryDy=0;fillColor=#e51400;strokeColor=#B20000;" parent="1" source="23" target="30" edge="1">
                    <mxGeometry width="50" height="50" relative="1" as="geometry">
                        <mxPoint x="80" y="-530" as="sourcePoint"/>
                        <mxPoint x="130" y="-580" as="targetPoint"/>
                    </mxGeometry>
                </mxCell>
                <mxCell id="62" value="" style="shape=flexArrow;endArrow=classic;html=1;exitX=0.5;exitY=1;exitDx=0;exitDy=0;entryX=0.5;entryY=0;entryDx=0;entryDy=0;fillColor=#e3c800;strokeColor=#B09500;" parent="1" source="38" target="53" edge="1">
                    <mxGeometry width="50" height="50" relative="1" as="geometry">
                        <mxPoint x="80" y="-430" as="sourcePoint"/>
                        <mxPoint x="130" y="-480" as="targetPoint"/>
                    </mxGeometry>
                </mxCell>
                <mxCell id="63" value="" style="shape=flexArrow;endArrow=classic;html=1;exitX=0.5;exitY=1;exitDx=0;exitDy=0;entryX=0.5;entryY=0;entryDx=0;entryDy=0;fillColor=#e3c800;strokeColor=#B09500;" parent="1" source="53" target="55" edge="1">
                    <mxGeometry width="50" height="50" relative="1" as="geometry">
                        <mxPoint x="80" y="-430" as="sourcePoint"/>
                        <mxPoint x="130" y="-480" as="targetPoint"/>
                    </mxGeometry>
                </mxCell>
                <mxCell id="64" value="" style="shape=flexArrow;endArrow=classic;startArrow=classic;html=1;exitX=0.5;exitY=0;exitDx=0;exitDy=0;entryX=0.5;entryY=1;entryDx=0;entryDy=0;fillColor=#e3c800;strokeColor=#B09500;" parent="1" source="33" target="32" edge="1">
                    <mxGeometry width="100" height="100" relative="1" as="geometry">
                        <mxPoint x="60" y="-500" as="sourcePoint"/>
                        <mxPoint x="160" y="-600" as="targetPoint"/>
                    </mxGeometry>
                </mxCell>
                <mxCell id="65" value="" style="shape=flexArrow;endArrow=classic;startArrow=classic;html=1;exitX=0.5;exitY=1;exitDx=0;exitDy=0;fillColor=#e3c800;strokeColor=#B09500;entryX=0.5;entryY=0;entryDx=0;entryDy=0;" parent="1" source="30" target="32" edge="1">
                    <mxGeometry width="100" height="100" relative="1" as="geometry">
                        <mxPoint x="60" y="-500" as="sourcePoint"/>
                        <mxPoint x="-220" y="-630" as="targetPoint"/>
                    </mxGeometry>
                </mxCell>
                <mxCell id="66" value="" style="shape=flexArrow;endArrow=classic;html=1;exitX=0;exitY=0;exitDx=0;exitDy=0;entryX=0.5;entryY=0;entryDx=0;entryDy=0;fillColor=#b0e3e6;strokeColor=#0e8088;" parent="1" source="5" target="23" edge="1">
                    <mxGeometry width="50" height="50" relative="1" as="geometry">
                        <mxPoint x="260" y="-730" as="sourcePoint"/>
                        <mxPoint x="310" y="-780" as="targetPoint"/>
                        <Array as="points"/>
                    </mxGeometry>
                </mxCell>
                <mxCell id="67" value="" style="shape=flexArrow;endArrow=classic;html=1;entryX=0.5;entryY=0;entryDx=0;entryDy=0;fillColor=#b0e3e6;strokeColor=#0e8088;" parent="1" target="17" edge="1">
                    <mxGeometry width="50" height="50" relative="1" as="geometry">
                        <mxPoint x="340" y="-1020" as="sourcePoint"/>
                        <mxPoint x="310" y="-780" as="targetPoint"/>
                    </mxGeometry>
                </mxCell>
                <mxCell id="68" value="" style="shape=flexArrow;endArrow=classic;html=1;exitX=0;exitY=0.75;exitDx=0;exitDy=0;entryX=1;entryY=1;entryDx=0;entryDy=0;fillColor=#b0e3e6;strokeColor=#0e8088;" parent="1" source="5" target="47" edge="1">
                    <mxGeometry width="50" height="50" relative="1" as="geometry">
                        <mxPoint x="260" y="-730" as="sourcePoint"/>
                        <mxPoint x="310" y="-780" as="targetPoint"/>
                    </mxGeometry>
                </mxCell>
                <mxCell id="69" value="" style="shape=flexArrow;endArrow=classic;html=1;entryX=0.5;entryY=0;entryDx=0;entryDy=0;fillColor=#b0e3e6;strokeColor=#0e8088;" parent="1" target="7" edge="1">
                    <mxGeometry width="50" height="50" relative="1" as="geometry">
                        <mxPoint x="340" y="-980" as="sourcePoint"/>
                        <mxPoint x="310" y="-780" as="targetPoint"/>
                    </mxGeometry>
                </mxCell>
                <mxCell id="70" value="" style="shape=flexArrow;endArrow=classic;html=1;exitX=0.5;exitY=1;exitDx=0;exitDy=0;entryX=0.5;entryY=0;entryDx=0;entryDy=0;fillColor=#b0e3e6;strokeColor=#0e8088;" parent="1" source="5" target="11" edge="1">
                    <mxGeometry width="50" height="50" relative="1" as="geometry">
                        <mxPoint x="260" y="-730" as="sourcePoint"/>
                        <mxPoint x="310" y="-780" as="targetPoint"/>
                    </mxGeometry>
                </mxCell>
                <mxCell id="71" value="" style="shape=flexArrow;endArrow=classic;html=1;exitX=1;exitY=0.25;exitDx=0;exitDy=0;entryX=0;entryY=1;entryDx=0;entryDy=0;fillColor=#b0e3e6;strokeColor=#0e8088;" parent="1" source="5" target="51" edge="1">
                    <mxGeometry width="50" height="50" relative="1" as="geometry">
                        <mxPoint x="500" y="-730" as="sourcePoint"/>
                        <mxPoint x="550" y="-780" as="targetPoint"/>
                    </mxGeometry>
                </mxCell>
                <mxCell id="72" value="" style="shape=flexArrow;endArrow=classic;html=1;exitX=1;exitY=0.5;exitDx=0;exitDy=0;entryX=0;entryY=1;entryDx=0;entryDy=0;fillColor=#b0e3e6;strokeColor=#0e8088;" parent="1" source="5" target="50" edge="1">
                    <mxGeometry width="50" height="50" relative="1" as="geometry">
                        <mxPoint x="500" y="-730" as="sourcePoint"/>
                        <mxPoint x="550" y="-780" as="targetPoint"/>
                    </mxGeometry>
                </mxCell>
                <mxCell id="73" value="" style="shape=flexArrow;endArrow=classic;html=1;exitX=1;exitY=0.75;exitDx=0;exitDy=0;entryX=0;entryY=0.75;entryDx=0;entryDy=0;fillColor=#b0e3e6;strokeColor=#0e8088;" parent="1" source="5" target="49" edge="1">
                    <mxGeometry width="50" height="50" relative="1" as="geometry">
                        <mxPoint x="500" y="-730" as="sourcePoint"/>
                        <mxPoint x="550" y="-780" as="targetPoint"/>
                    </mxGeometry>
                </mxCell>
                <mxCell id="74" value="" style="shape=flexArrow;endArrow=classic;html=1;entryX=0;entryY=0.5;entryDx=0;entryDy=0;fillColor=#b0e3e6;strokeColor=#0e8088;" parent="1" target="25" edge="1">
                    <mxGeometry width="50" height="50" relative="1" as="geometry">
                        <mxPoint x="480" y="-1050" as="sourcePoint"/>
                        <mxPoint x="550" y="-780" as="targetPoint"/>
                    </mxGeometry>
                </mxCell>
                <mxCell id="77" value="WYSYŁKA PACZKOWA" style="shape=table;startSize=25;container=1;collapsible=0;childLayout=tableLayout;fixedRows=1;rowLines=0;fontStyle=1;" parent="1" vertex="1">
                    <mxGeometry x="-210" y="-525" width="180" height="315" as="geometry"/>
                </mxCell>
                <mxCell id="78" value="" style="shape=tableRow;horizontal=0;startSize=0;swimlaneHead=0;swimlaneBody=0;top=0;left=0;bottom=0;right=0;collapsible=0;dropTarget=0;fillColor=none;points=[[0,0.5],[1,0.5]];portConstraint=eastwest;" parent="77" vertex="1">
                    <mxGeometry y="25" width="180" height="95" as="geometry"/>
                </mxCell>
                <mxCell id="79" value="INPOST" style="shape=partialRectangle;html=1;whiteSpace=wrap;connectable=0;fillColor=#a0522d;top=0;left=0;bottom=0;right=0;overflow=hidden;pointerEvents=1;fontColor=#ffffff;strokeColor=#6D1F00;" parent="78" vertex="1">
                    <mxGeometry width="55" height="95" as="geometry">
                        <mxRectangle width="55" height="95" as="alternateBounds"/>
                    </mxGeometry>
                </mxCell>
                <mxCell id="80" value="KOSZT" style="shape=partialRectangle;html=1;whiteSpace=wrap;connectable=0;top=0;left=0;bottom=0;right=0;align=left;spacingLeft=6;overflow=hidden;" parent="78" vertex="1">
                    <mxGeometry x="55" width="125" height="95" as="geometry">
                        <mxRectangle width="125" height="95" as="alternateBounds"/>
                    </mxGeometry>
                </mxCell>
                <mxCell id="81" value="" style="shape=tableRow;horizontal=0;startSize=0;swimlaneHead=0;swimlaneBody=0;top=0;left=0;bottom=0;right=0;collapsible=0;dropTarget=0;fillColor=none;points=[[0,0.5],[1,0.5]];portConstraint=eastwest;" parent="77" vertex="1">
                    <mxGeometry y="120" width="180" height="100" as="geometry"/>
                </mxCell>
                <mxCell id="82" value="DPD" style="shape=partialRectangle;html=1;whiteSpace=wrap;connectable=0;fillColor=#a0522d;top=0;left=0;bottom=0;right=0;overflow=hidden;fontColor=#ffffff;strokeColor=#6D1F00;" parent="81" vertex="1">
                    <mxGeometry width="55" height="100" as="geometry">
                        <mxRectangle width="55" height="100" as="alternateBounds"/>
                    </mxGeometry>
                </mxCell>
                <mxCell id="83" value="KOSZT" style="shape=partialRectangle;html=1;whiteSpace=wrap;connectable=0;top=0;left=0;bottom=0;right=0;align=left;spacingLeft=6;overflow=hidden;" parent="81" vertex="1">
                    <mxGeometry x="55" width="125" height="100" as="geometry">
                        <mxRectangle width="125" height="100" as="alternateBounds"/>
                    </mxGeometry>
                </mxCell>
                <mxCell id="84" value="" style="shape=tableRow;horizontal=0;startSize=0;swimlaneHead=0;swimlaneBody=0;top=0;left=0;bottom=0;right=0;collapsible=0;dropTarget=0;fillColor=none;points=[[0,0.5],[1,0.5]];portConstraint=eastwest;" parent="77" vertex="1">
                    <mxGeometry y="220" width="180" height="90" as="geometry"/>
                </mxCell>
                <mxCell id="85" value="DHL" style="shape=partialRectangle;html=1;whiteSpace=wrap;connectable=0;fillColor=#a0522d;top=0;left=0;bottom=0;right=0;overflow=hidden;fontColor=#ffffff;strokeColor=#6D1F00;" parent="84" vertex="1">
                    <mxGeometry width="55" height="90" as="geometry">
                        <mxRectangle width="55" height="90" as="alternateBounds"/>
                    </mxGeometry>
                </mxCell>
                <mxCell id="86" value="KOSZT" style="shape=partialRectangle;html=1;whiteSpace=wrap;connectable=0;top=0;left=0;bottom=0;right=0;align=left;spacingLeft=6;overflow=hidden;" parent="84" vertex="1">
                    <mxGeometry x="55" width="125" height="90" as="geometry">
                        <mxRectangle width="125" height="90" as="alternateBounds"/>
                    </mxGeometry>
                </mxCell>
                <mxCell id="87" value="WYSYŁKA PALETOWA" style="shape=table;startSize=30;container=1;collapsible=0;childLayout=tableLayout;fixedRows=1;rowLines=0;fontStyle=1;" parent="1" vertex="1">
                    <mxGeometry x="-10" y="-525" width="200" height="315" as="geometry"/>
                </mxCell>
                <mxCell id="88" value="" style="shape=tableRow;horizontal=0;startSize=0;swimlaneHead=0;swimlaneBody=0;top=0;left=0;bottom=0;right=0;collapsible=0;dropTarget=0;fillColor=none;points=[[0,0.5],[1,0.5]];portConstraint=eastwest;" parent="87" vertex="1">
                    <mxGeometry y="30" width="200" height="95" as="geometry"/>
                </mxCell>
                <mxCell id="89" value="INPOST" style="shape=partialRectangle;html=1;whiteSpace=wrap;connectable=0;fillColor=#a0522d;top=0;left=0;bottom=0;right=0;overflow=hidden;pointerEvents=1;fontColor=#ffffff;strokeColor=#6D1F00;" parent="88" vertex="1">
                    <mxGeometry width="60" height="95" as="geometry">
                        <mxRectangle width="60" height="95" as="alternateBounds"/>
                    </mxGeometry>
                </mxCell>
                <mxCell id="90" value="KOSZT" style="shape=partialRectangle;html=1;whiteSpace=wrap;connectable=0;top=0;left=0;bottom=0;right=0;align=left;spacingLeft=6;overflow=hidden;" parent="88" vertex="1">
                    <mxGeometry x="60" width="140" height="95" as="geometry">
                        <mxRectangle width="140" height="95" as="alternateBounds"/>
                    </mxGeometry>
                </mxCell>
                <mxCell id="91" value="" style="shape=tableRow;horizontal=0;startSize=0;swimlaneHead=0;swimlaneBody=0;top=0;left=0;bottom=0;right=0;collapsible=0;dropTarget=0;fillColor=none;points=[[0,0.5],[1,0.5]];portConstraint=eastwest;" parent="87" vertex="1">
                    <mxGeometry y="125" width="200" height="65" as="geometry"/>
                </mxCell>
                <mxCell id="92" value="DPD" style="shape=partialRectangle;html=1;whiteSpace=wrap;connectable=0;fillColor=#a0522d;top=0;left=0;bottom=0;right=0;overflow=hidden;fontColor=#ffffff;strokeColor=#6D1F00;" parent="91" vertex="1">
                    <mxGeometry width="60" height="65" as="geometry">
                        <mxRectangle width="60" height="65" as="alternateBounds"/>
                    </mxGeometry>
                </mxCell>
                <mxCell id="93" value="KOSZT" style="shape=partialRectangle;html=1;whiteSpace=wrap;connectable=0;top=0;left=0;bottom=0;right=0;align=left;spacingLeft=6;overflow=hidden;" parent="91" vertex="1">
                    <mxGeometry x="60" width="140" height="65" as="geometry">
                        <mxRectangle width="140" height="65" as="alternateBounds"/>
                    </mxGeometry>
                </mxCell>
                <mxCell id="94" value="" style="shape=tableRow;horizontal=0;startSize=0;swimlaneHead=0;swimlaneBody=0;top=0;left=0;bottom=0;right=0;collapsible=0;dropTarget=0;fillColor=none;points=[[0,0.5],[1,0.5]];portConstraint=eastwest;" parent="87" vertex="1">
                    <mxGeometry y="190" width="200" height="125" as="geometry"/>
                </mxCell>
                <mxCell id="95" value="DHL" style="shape=partialRectangle;html=1;whiteSpace=wrap;connectable=0;fillColor=#a0522d;top=0;left=0;bottom=0;right=0;overflow=hidden;fontColor=#ffffff;strokeColor=#6D1F00;" parent="94" vertex="1">
                    <mxGeometry width="60" height="125" as="geometry">
                        <mxRectangle width="60" height="125" as="alternateBounds"/>
                    </mxGeometry>
                </mxCell>
                <mxCell id="96" value="KOSZT" style="shape=partialRectangle;html=1;whiteSpace=wrap;connectable=0;top=0;left=0;bottom=0;right=0;align=left;spacingLeft=6;overflow=hidden;" parent="94" vertex="1">
                    <mxGeometry x="60" width="140" height="125" as="geometry">
                        <mxRectangle width="140" height="125" as="alternateBounds"/>
                    </mxGeometry>
                </mxCell>
                <mxCell id="97" value="" style="shape=flexArrow;endArrow=classic;html=1;exitX=0.5;exitY=1;exitDx=0;exitDy=0;entryX=0.5;entryY=0;entryDx=0;entryDy=0;fillColor=#e3c800;strokeColor=#B09500;" parent="1" source="39" target="77" edge="1">
                    <mxGeometry width="50" height="50" relative="1" as="geometry">
                        <mxPoint x="260" y="-430" as="sourcePoint"/>
                        <mxPoint x="310" y="-480" as="targetPoint"/>
                    </mxGeometry>
                </mxCell>
                <mxCell id="98" value="" style="shape=flexArrow;endArrow=classic;html=1;exitX=1;exitY=0.5;exitDx=0;exitDy=0;entryX=0.5;entryY=0;entryDx=0;entryDy=0;fillColor=#e3c800;strokeColor=#B09500;" parent="1" source="39" target="87" edge="1">
                    <mxGeometry width="50" height="50" relative="1" as="geometry">
                        <mxPoint x="260" y="-430" as="sourcePoint"/>
                        <mxPoint x="310" y="-480" as="targetPoint"/>
                        <Array as="points"/>
                    </mxGeometry>
                </mxCell>
                <mxCell id="100" value="ZAPISYWANE CENNIKI DOSTĘPNE SĄ W MAGAZYNIE&lt;br&gt;&amp;nbsp;ABY BYŁA MOŻLIWOŚĆ DOPISANIA&lt;br&gt;&amp;nbsp;DO FAKTURY PARAGONU LUB INNYCH&lt;br&gt;CZYLI MUSI BYC ZAPISANA W JAKIEJS SEKCJI,&lt;br&gt;W BAZIE DANYCH" style="ellipse;shape=cloud;whiteSpace=wrap;html=1;" parent="1" vertex="1">
                    <mxGeometry x="-180" y="-150" width="390" height="210" as="geometry"/>
                </mxCell>
                <mxCell id="101" value="" style="shape=flexArrow;endArrow=classic;html=1;exitX=0.506;exitY=1.011;exitDx=0;exitDy=0;exitPerimeter=0;entryX=0.4;entryY=0.1;entryDx=0;entryDy=0;entryPerimeter=0;fillColor=#e51400;strokeColor=#B20000;" parent="1" source="84" target="100" edge="1">
                    <mxGeometry width="50" height="50" relative="1" as="geometry">
                        <mxPoint x="260" y="-60" as="sourcePoint"/>
                        <mxPoint x="310" y="-110" as="targetPoint"/>
                    </mxGeometry>
                </mxCell>
                <mxCell id="102" value="" style="shape=flexArrow;endArrow=classic;html=1;exitX=0.64;exitY=0.992;exitDx=0;exitDy=0;exitPerimeter=0;entryX=0.625;entryY=0.2;entryDx=0;entryDy=0;entryPerimeter=0;fillColor=#e51400;strokeColor=#B20000;" parent="1" source="94" target="100" edge="1">
                    <mxGeometry width="50" height="50" relative="1" as="geometry">
                        <mxPoint x="260" y="-60" as="sourcePoint"/>
                        <mxPoint x="310" y="-110" as="targetPoint"/>
                    </mxGeometry>
                </mxCell>
                <mxCell id="103" value="MOGĄ BYĆ JESZCZE CENY PACZKOMATÓW :)" style="shape=callout;whiteSpace=wrap;html=1;perimeter=calloutPerimeter;" parent="1" vertex="1">
                    <mxGeometry x="-70" y="130" width="200" height="140" as="geometry"/>
                </mxCell>
                <mxCell id="104" value="" style="shape=flexArrow;endArrow=classic;startArrow=classic;html=1;exitX=0.5;exitY=0;exitDx=0;exitDy=0;exitPerimeter=0;entryX=0.55;entryY=0.95;entryDx=0;entryDy=0;entryPerimeter=0;fillColor=#e3c800;strokeColor=#B09500;" parent="1" source="103" target="100" edge="1">
                    <mxGeometry width="100" height="100" relative="1" as="geometry">
                        <mxPoint x="230" y="50" as="sourcePoint"/>
                        <mxPoint x="330" y="-50" as="targetPoint"/>
                    </mxGeometry>
                </mxCell>
                <mxCell id="105" value="Szerman sugeruje" style="shape=umlActor;verticalLabelPosition=bottom;verticalAlign=top;html=1;outlineConnect=0;fillColor=#f8cecc;gradientColor=#ea6b66;strokeColor=#b85450;" parent="1" vertex="1">
                    <mxGeometry x="15" y="260" width="30" height="60" as="geometry"/>
                </mxCell>
                <mxCell id="106" value="APLIKACJA MUSI OTWIERAĆ NOWE OKIENKA LUB JEŻELI NIE CHCEMY NOWEGO OKIENKA PRZEKIEROWYWAC NA NOWE OKNO, ABY NIE BYLO ZA DUZO OKIENEK&amp;nbsp;" style="shape=callout;whiteSpace=wrap;html=1;perimeter=calloutPerimeter;fillColor=#e51400;fontColor=#ffffff;strokeColor=#B20000;" parent="1" vertex="1">
                    <mxGeometry x="530" y="-1590" width="230" height="230" as="geometry"/>
                </mxCell>
                <mxCell id="107" value="Szerman sugeruje" style="shape=umlActor;verticalLabelPosition=bottom;verticalAlign=top;html=1;outlineConnect=0;fillColor=#f8cecc;strokeColor=#b85450;gradientColor=#ea6b66;" parent="1" vertex="1">
                    <mxGeometry x="625" y="-1360" width="30" height="60" as="geometry"/>
                </mxCell>
                <mxCell id="108" value="Z wykorzystaniem API, trend w&lt;br&gt;&amp;nbsp;danym okresie na dany asortyment&lt;br&gt;&lt;br&gt;Możliwość wpisania danej&lt;br&gt;&amp;nbsp;kategorii i pokazanie w ktorej czesci roku jest na nią ,,trend,," style="shape=hexagon;perimeter=hexagonPerimeter2;whiteSpace=wrap;html=1;fixedSize=1;" parent="1" vertex="1">
                    <mxGeometry x="1340" y="-905" width="215" height="170" as="geometry"/>
                </mxCell>
                <mxCell id="109" value="" style="shape=flexArrow;endArrow=classic;html=1;exitX=0.5;exitY=1;exitDx=0;exitDy=0;entryX=0.5;entryY=0;entryDx=0;entryDy=0;fillColor=#f8cecc;gradientColor=#ea6b66;strokeColor=#b85450;" parent="1" source="25" target="108" edge="1">
                    <mxGeometry width="50" height="50" relative="1" as="geometry">
                        <mxPoint x="910" y="-720" as="sourcePoint"/>
                        <mxPoint x="960" y="-770" as="targetPoint"/>
                    </mxGeometry>
                </mxCell>
                <mxCell id="110" value="WYPISANIE SŁÓW KLUCZOWYCH NP. POPRZEZ ALLEGRO ANALITY / GOOGLE TRENDS / TRADE WATCH" style="whiteSpace=wrap;html=1;aspect=fixed;" parent="1" vertex="1">
                    <mxGeometry x="1387.5" y="-700" width="160" height="160" as="geometry"/>
                </mxCell>
                <mxCell id="111" value="" style="shape=flexArrow;endArrow=classic;html=1;exitX=0.5;exitY=1;exitDx=0;exitDy=0;entryX=0.5;entryY=0;entryDx=0;entryDy=0;fillColor=#ffff88;strokeColor=#36393d;" parent="1" source="108" target="110" edge="1">
                    <mxGeometry width="50" height="50" relative="1" as="geometry">
                        <mxPoint x="1180" y="-750" as="sourcePoint"/>
                        <mxPoint x="1230" y="-800" as="targetPoint"/>
                        <Array as="points">
                            <mxPoint x="1448" y="-710"/>
                        </Array>
                    </mxGeometry>
                </mxCell>
                <mxCell id="112" value="PRZYKŁADOWE" style="shape=table;childLayout=tableLayout;startSize=40;collapsible=0;recursiveResize=0;expand=0;fontStyle=1;" parent="1" vertex="1">
                    <mxGeometry x="1210" y="-500" width="400" height="400" as="geometry"/>
                </mxCell>
                <mxCell id="113" value="SEKATOR" style="shape=tableRow;horizontal=0;startSize=40;swimlaneHead=0;swimlaneBody=0;top=0;left=0;bottom=0;right=0;dropTarget=0;fillColor=#1ba1e2;collapsible=0;recursiveResize=0;expand=0;fontStyle=1;strokeColor=#006EAF;fontColor=#ffffff;" parent="112" vertex="1">
                    <mxGeometry y="40" width="400" height="120" as="geometry"/>
                </mxCell>
                <mxCell id="114" value="EX.1" style="swimlane;swimlaneHead=0;swimlaneBody=0;fontStyle=0;connectable=0;fillColor=#dae8fc;startSize=40;collapsible=0;recursiveResize=0;expand=0;fontStyle=1;strokeColor=#6c8ebf;gradientColor=#7ea6e0;" parent="113" vertex="1">
                    <mxGeometry x="40" width="120" height="120" as="geometry">
                        <mxRectangle width="120" height="120" as="alternateBounds"/>
                    </mxGeometry>
                </mxCell>
                <mxCell id="126" value="Sekator ręczny..." style="text;html=1;align=center;verticalAlign=middle;resizable=0;points=[];autosize=1;strokeColor=none;fillColor=none;" parent="114" vertex="1">
                    <mxGeometry x="5" y="60" width="110" height="30" as="geometry"/>
                </mxCell>
                <mxCell id="115" value="EX.2" style="swimlane;swimlaneHead=0;swimlaneBody=0;fontStyle=0;connectable=0;fillColor=#dae8fc;startSize=40;collapsible=0;recursiveResize=0;expand=0;fontStyle=1;gradientColor=#7ea6e0;strokeColor=#6c8ebf;" parent="113" vertex="1">
                    <mxGeometry x="160" width="120" height="120" as="geometry">
                        <mxRectangle width="120" height="120" as="alternateBounds"/>
                    </mxGeometry>
                </mxCell>
                <mxCell id="127" value="Sekatory do trawy.." style="text;html=1;align=center;verticalAlign=middle;resizable=0;points=[];autosize=1;strokeColor=none;fillColor=none;" parent="115" vertex="1">
                    <mxGeometry x="-5" y="60" width="130" height="30" as="geometry"/>
                </mxCell>
                <mxCell id="116" value="EX.3" style="swimlane;swimlaneHead=0;swimlaneBody=0;fontStyle=0;connectable=0;fillColor=#dae8fc;startSize=40;collapsible=0;recursiveResize=0;expand=0;fontStyle=1;gradientColor=#7ea6e0;strokeColor=#6c8ebf;" parent="113" vertex="1">
                    <mxGeometry x="280" width="120" height="120" as="geometry">
                        <mxRectangle width="120" height="120" as="alternateBounds"/>
                    </mxGeometry>
                </mxCell>
                <mxCell id="128" value="Sekator ogrodowy" style="text;html=1;align=center;verticalAlign=middle;resizable=0;points=[];autosize=1;strokeColor=none;fillColor=none;" parent="116" vertex="1">
                    <mxGeometry y="60" width="120" height="30" as="geometry"/>
                </mxCell>
                <mxCell id="117" value="PLANDEKA" style="shape=tableRow;horizontal=0;startSize=40;swimlaneHead=0;swimlaneBody=0;top=0;left=0;bottom=0;right=0;dropTarget=0;fillColor=#1ba1e2;collapsible=0;recursiveResize=0;expand=0;fontStyle=1;fontColor=#ffffff;strokeColor=#006EAF;" parent="112" vertex="1">
                    <mxGeometry y="160" width="400" height="120" as="geometry"/>
                </mxCell>
                <mxCell id="118" value="" style="swimlane;swimlaneHead=0;swimlaneBody=0;fontStyle=0;connectable=0;fillColor=none;startSize=0;collapsible=0;recursiveResize=0;expand=0;fontStyle=1;" parent="117" vertex="1">
                    <mxGeometry x="40" width="120" height="120" as="geometry">
                        <mxRectangle width="120" height="120" as="alternateBounds"/>
                    </mxGeometry>
                </mxCell>
                <mxCell id="129" value="Plandeka uniwersalna" style="text;html=1;align=center;verticalAlign=middle;resizable=0;points=[];autosize=1;strokeColor=none;fillColor=none;" parent="118" vertex="1">
                    <mxGeometry x="-10" y="50" width="140" height="30" as="geometry"/>
                </mxCell>
                <mxCell id="119" value="" style="swimlane;swimlaneHead=0;swimlaneBody=0;fontStyle=0;connectable=0;fillColor=none;startSize=0;collapsible=0;recursiveResize=0;expand=0;fontStyle=1;" parent="117" vertex="1">
                    <mxGeometry x="160" width="120" height="120" as="geometry">
                        <mxRectangle width="120" height="120" as="alternateBounds"/>
                    </mxGeometry>
                </mxCell>
                <mxCell id="130" value="Plandeka zbrojona" style="text;html=1;align=center;verticalAlign=middle;resizable=0;points=[];autosize=1;strokeColor=none;fillColor=none;" parent="119" vertex="1">
                    <mxGeometry x="1" y="50" width="120" height="30" as="geometry"/>
                </mxCell>
                <mxCell id="120" value="" style="swimlane;swimlaneHead=0;swimlaneBody=0;fontStyle=0;connectable=0;fillColor=none;startSize=0;collapsible=0;recursiveResize=0;expand=0;fontStyle=1;" parent="117" vertex="1">
                    <mxGeometry x="280" width="120" height="120" as="geometry">
                        <mxRectangle width="120" height="120" as="alternateBounds"/>
                    </mxGeometry>
                </mxCell>
                <mxCell id="131" value="Plandeka mocna" style="text;html=1;align=center;verticalAlign=middle;resizable=0;points=[];autosize=1;strokeColor=none;fillColor=none;" parent="120" vertex="1">
                    <mxGeometry x="5" y="50" width="110" height="30" as="geometry"/>
                </mxCell>
                <mxCell id="121" value="SIEKIERA" style="shape=tableRow;horizontal=0;startSize=40;swimlaneHead=0;swimlaneBody=0;top=0;left=0;bottom=0;right=0;dropTarget=0;fillColor=#1ba1e2;collapsible=0;recursiveResize=0;expand=0;fontStyle=1;fontColor=#ffffff;strokeColor=#006EAF;" parent="112" vertex="1">
                    <mxGeometry y="280" width="400" height="120" as="geometry"/>
                </mxCell>
                <mxCell id="122" value="" style="swimlane;swimlaneHead=0;swimlaneBody=0;fontStyle=0;connectable=0;fillColor=none;startSize=0;collapsible=0;recursiveResize=0;expand=0;fontStyle=1;" parent="121" vertex="1">
                    <mxGeometry x="40" width="120" height="120" as="geometry">
                        <mxRectangle width="120" height="120" as="alternateBounds"/>
                    </mxGeometry>
                </mxCell>
                <mxCell id="132" value="Siekiera Bradas" style="text;html=1;align=center;verticalAlign=middle;resizable=0;points=[];autosize=1;strokeColor=none;fillColor=none;" parent="122" vertex="1">
                    <mxGeometry x="5" y="45" width="110" height="30" as="geometry"/>
                </mxCell>
                <mxCell id="123" value="" style="swimlane;swimlaneHead=0;swimlaneBody=0;fontStyle=0;connectable=0;fillColor=none;startSize=0;collapsible=0;recursiveResize=0;expand=0;fontStyle=1;" parent="121" vertex="1">
                    <mxGeometry x="160" width="120" height="120" as="geometry">
                        <mxRectangle width="120" height="120" as="alternateBounds"/>
                    </mxGeometry>
                </mxCell>
                <mxCell id="133" value="Siekiera do łupania" style="text;html=1;align=center;verticalAlign=middle;resizable=0;points=[];autosize=1;strokeColor=none;fillColor=none;" parent="123" vertex="1">
                    <mxGeometry x="-5" y="45" width="130" height="30" as="geometry"/>
                </mxCell>
                <mxCell id="124" value="" style="swimlane;swimlaneHead=0;swimlaneBody=0;fontStyle=0;connectable=0;fillColor=none;startSize=0;collapsible=0;recursiveResize=0;expand=0;fontStyle=1;" parent="121" vertex="1">
                    <mxGeometry x="280" width="120" height="120" as="geometry">
                        <mxRectangle width="120" height="120" as="alternateBounds"/>
                    </mxGeometry>
                </mxCell>
                <mxCell id="134" value="Siekiera do drewna" style="text;html=1;align=center;verticalAlign=middle;resizable=0;points=[];autosize=1;strokeColor=none;fillColor=none;" parent="124" vertex="1">
                    <mxGeometry x="-5" y="45" width="130" height="30" as="geometry"/>
                </mxCell>
                <mxCell id="125" value="" style="shape=flexArrow;endArrow=classic;html=1;exitX=0.5;exitY=1;exitDx=0;exitDy=0;entryX=0.5;entryY=0;entryDx=0;entryDy=0;fillColor=#ffff88;strokeColor=#36393d;" parent="1" source="110" target="112" edge="1">
                    <mxGeometry width="50" height="50" relative="1" as="geometry">
                        <mxPoint x="1250" y="-380" as="sourcePoint"/>
                        <mxPoint x="1300" y="-430" as="targetPoint"/>
                    </mxGeometry>
                </mxCell>
                <mxCell id="164" style="edgeStyle=none;html=1;exitX=1;exitY=0.75;exitDx=0;exitDy=0;" parent="1" source="135" edge="1">
                    <mxGeometry relative="1" as="geometry">
                        <mxPoint x="1119.9999999999995" y="-790" as="targetPoint"/>
                    </mxGeometry>
                </mxCell>
                <mxCell id="135" value="KONTAKT DO DZIAŁU POMOCY APLIKACJI&lt;br&gt;&lt;br&gt;NAJCZĘSCIEJ ZADAWANE PYTANIA I ODPOWIEDZI" style="rounded=0;whiteSpace=wrap;html=1;" parent="1" vertex="1">
                    <mxGeometry x="1050" y="-870" width="240" height="100" as="geometry"/>
                </mxCell>
                <mxCell id="136" value="" style="shape=flexArrow;endArrow=classic;html=1;exitX=0.5;exitY=1;exitDx=0;exitDy=0;entryX=0.5;entryY=0;entryDx=0;entryDy=0;fillColor=#a20025;strokeColor=#6F0000;" parent="1" source="19" target="135" edge="1">
                    <mxGeometry width="50" height="50" relative="1" as="geometry">
                        <mxPoint x="850" y="-710" as="sourcePoint"/>
                        <mxPoint x="900" y="-760" as="targetPoint"/>
                    </mxGeometry>
                </mxCell>
                <mxCell id="137" value="JAKIŚ PRZYKŁADOWE ZAPYTANIE DO POMPCY KLIENTA ( FORMULARZ )&lt;br&gt;&lt;br&gt;GODZINY PRACY POMOCY TECHNICZNEJ" style="rounded=0;whiteSpace=wrap;html=1;" parent="1" vertex="1">
                    <mxGeometry x="1060" y="-700" width="200" height="140" as="geometry"/>
                </mxCell>
                <mxCell id="138" value="" style="shape=flexArrow;endArrow=classic;html=1;exitX=0.5;exitY=1;exitDx=0;exitDy=0;fillColor=#ffff88;strokeColor=#36393d;" parent="1" source="135" target="137" edge="1">
                    <mxGeometry width="50" height="50" relative="1" as="geometry">
                        <mxPoint x="850" y="-720" as="sourcePoint"/>
                        <mxPoint x="900" y="-770" as="targetPoint"/>
                    </mxGeometry>
                </mxCell>
                <mxCell id="139" value="Szerman Sugeruje" style="shape=umlActor;verticalLabelPosition=bottom;verticalAlign=top;html=1;outlineConnect=0;fillColor=#a20025;strokeColor=#6F0000;fontColor=#ffffff;" parent="1" vertex="1">
                    <mxGeometry x="180" y="-1390" width="30" height="60" as="geometry"/>
                </mxCell>
                <mxCell id="140" value="Przydałoby się jeszcze aby można było logować się jako SUPER ADMIN stwórca projektu i mieć podgląd do systemu i firm które wykupiły program itd" style="shape=callout;whiteSpace=wrap;html=1;perimeter=calloutPerimeter;fillColor=#a20025;fontColor=#ffffff;strokeColor=#6F0000;" parent="1" vertex="1">
                    <mxGeometry x="80" y="-1580" width="240" height="190" as="geometry"/>
                </mxCell>
                <mxCell id="141" value="DODAWANIE WIELU MOŻLIWOŚCI KURIERÓW Z KLAWIATURY" style="text;html=1;strokeColor=#2D7600;fillColor=#60a917;align=center;verticalAlign=middle;whiteSpace=wrap;rounded=0;fontColor=#ffffff;" parent="1" vertex="1">
                    <mxGeometry x="-100" y="-185" width="220" height="30" as="geometry"/>
                </mxCell>
                <mxCell id="142" value="SORTOWANIE WEDŁUG SAMYCH FAKTUR, SAMYCH PARAGONÓW, SAMYCH PROFORM" style="whiteSpace=wrap;html=1;aspect=fixed;" parent="1" vertex="1">
                    <mxGeometry x="855" y="-760" width="150" height="150" as="geometry"/>
                </mxCell>
                <mxCell id="143" value="" style="shape=flexArrow;endArrow=classic;html=1;exitX=0.5;exitY=1;exitDx=0;exitDy=0;entryX=0.5;entryY=0;entryDx=0;entryDy=0;fillColor=#a20025;strokeColor=#6F0000;" parent="1" source="15" target="142" edge="1">
                    <mxGeometry width="50" height="50" relative="1" as="geometry">
                        <mxPoint x="690" y="-580" as="sourcePoint"/>
                        <mxPoint x="740" y="-630" as="targetPoint"/>
                    </mxGeometry>
                </mxCell>
                <mxCell id="144" value="SORTOWANIE WEDŁUG DATY OD X DO Y" style="whiteSpace=wrap;html=1;aspect=fixed;" parent="1" vertex="1">
                    <mxGeometry x="870" y="-570" width="134" height="134" as="geometry"/>
                </mxCell>
                <mxCell id="145" value="" style="shape=flexArrow;endArrow=classic;html=1;exitX=0.5;exitY=1;exitDx=0;exitDy=0;entryX=0.5;entryY=0;entryDx=0;entryDy=0;fillColor=#a20025;strokeColor=#6F0000;" parent="1" source="142" target="144" edge="1">
                    <mxGeometry width="50" height="50" relative="1" as="geometry">
                        <mxPoint x="690" y="-500" as="sourcePoint"/>
                        <mxPoint x="740" y="-550" as="targetPoint"/>
                    </mxGeometry>
                </mxCell>
                <mxCell id="146" value="SORTOWANIE WEDŁUG EAN / NAZWY TOWARU ZAWARTYCH NA DOKUMENCIE SPRZEDAŻY" style="whiteSpace=wrap;html=1;aspect=fixed;" parent="1" vertex="1">
                    <mxGeometry x="884" y="-400" width="120" height="120" as="geometry"/>
                </mxCell>
                <mxCell id="147" value="" style="shape=flexArrow;endArrow=classic;html=1;exitX=0.5;exitY=1;exitDx=0;exitDy=0;entryX=0.5;entryY=0;entryDx=0;entryDy=0;fillColor=#ffff88;strokeColor=#36393d;" parent="1" source="144" target="146" edge="1">
                    <mxGeometry width="50" height="50" relative="1" as="geometry">
                        <mxPoint x="690" y="-420" as="sourcePoint"/>
                        <mxPoint x="740" y="-470" as="targetPoint"/>
                    </mxGeometry>
                </mxCell>
                <mxCell id="148" value="SORTOWANIE PO NIPIE KLIENTA / SORTOWANIE PO NR.FAKTURY LUB PO NUMERZE PARAGONU" style="whiteSpace=wrap;html=1;aspect=fixed;" parent="1" vertex="1">
                    <mxGeometry x="900" y="-220" width="120" height="120" as="geometry"/>
                </mxCell>
                <mxCell id="149" value="" style="shape=flexArrow;endArrow=classic;html=1;exitX=0.5;exitY=1;exitDx=0;exitDy=0;entryX=0.5;entryY=0;entryDx=0;entryDy=0;fillColor=#ffff88;strokeColor=#36393d;" parent="1" source="146" target="148" edge="1">
                    <mxGeometry width="50" height="50" relative="1" as="geometry">
                        <mxPoint x="690" y="-350" as="sourcePoint"/>
                        <mxPoint x="740" y="-400" as="targetPoint"/>
                    </mxGeometry>
                </mxCell>
                <mxCell id="150" value="WYŚWIETLENIE DOKUMENTU" style="whiteSpace=wrap;html=1;aspect=fixed;" parent="1" vertex="1">
                    <mxGeometry x="890" y="-60" width="140" height="140" as="geometry"/>
                </mxCell>
                <mxCell id="151" value="" style="shape=flexArrow;endArrow=classic;html=1;exitX=0.5;exitY=1;exitDx=0;exitDy=0;entryX=0.5;entryY=0;entryDx=0;entryDy=0;fillColor=#f8cecc;gradientColor=#ea6b66;strokeColor=#b85450;" parent="1" source="148" target="150" edge="1">
                    <mxGeometry width="50" height="50" relative="1" as="geometry">
                        <mxPoint x="730" y="-140" as="sourcePoint"/>
                        <mxPoint x="780" y="-190" as="targetPoint"/>
                    </mxGeometry>
                </mxCell>
                <mxCell id="152" value="ZAPIS DOKUMENTU DO PLIKU Z KTÓREGO MOŻNA WYSLAC NA EMAIL / WIADOMOŚCI LUB WYDRUKOWAĆ" style="ellipse;whiteSpace=wrap;html=1;aspect=fixed;" parent="1" vertex="1">
                    <mxGeometry x="870" y="130" width="200" height="200" as="geometry"/>
                </mxCell>
                <mxCell id="153" value="" style="shape=flexArrow;endArrow=classic;html=1;exitX=0.5;exitY=1;exitDx=0;exitDy=0;fillColor=#f8cecc;gradientColor=#ea6b66;strokeColor=#b85450;" parent="1" source="150" target="152" edge="1">
                    <mxGeometry width="50" height="50" relative="1" as="geometry">
                        <mxPoint x="730" y="90" as="sourcePoint"/>
                        <mxPoint x="780" y="40" as="targetPoint"/>
                    </mxGeometry>
                </mxCell>
                <mxCell id="154" value="PANEL REJESTRACJI WSZYSTKIE DANE NIP NAZWA FIRMY KOD POCZTOWY SIEDZIBA ITDPOTRZEBNE DO DOKUMENTU" style="whiteSpace=wrap;html=1;aspect=fixed;fillColor=#a20025;strokeColor=#6F0000;fontColor=#ffffff;" parent="1" vertex="1">
                    <mxGeometry x="345.75" y="-1210" width="136.5" height="136.5" as="geometry"/>
                </mxCell>
                <mxCell id="155" value="" style="endArrow=none;dashed=1;html=1;exitX=1;exitY=0.25;exitDx=0;exitDy=0;" parent="1" source="154" edge="1">
                    <mxGeometry width="50" height="50" relative="1" as="geometry">
                        <mxPoint x="520" y="-1050" as="sourcePoint"/>
                        <mxPoint x="890" y="-1260" as="targetPoint"/>
                    </mxGeometry>
                </mxCell>
                <mxCell id="156" value="NA DOKUMENCIE SPRZEDAZY MUSI WIDNIEC INFORMACJA KTO WYSTAWIL FAKTURE KTO OTRZYMAL FAKTURE / NA PARAGONIE TYLKO NIE MUSI" style="text;html=1;strokeColor=none;fillColor=none;align=center;verticalAlign=middle;whiteSpace=wrap;rounded=0;" parent="1" vertex="1">
                    <mxGeometry x="890" y="-1275" width="60" height="30" as="geometry"/>
                </mxCell>
                <mxCell id="159" style="edgeStyle=none;html=1;exitX=0.5;exitY=0;exitDx=0;exitDy=0;entryX=0;entryY=0;entryDx=0;entryDy=0;" parent="1" source="42" target="42" edge="1">
                    <mxGeometry relative="1" as="geometry"/>
                </mxCell>
                <mxCell id="165" value="STALI KLIENCI" style="rounded=0;whiteSpace=wrap;html=1;" parent="1" vertex="1">
                    <mxGeometry x="690" y="-670" width="120" height="60" as="geometry"/>
                </mxCell>
                <mxCell id="166" value="REKLAMACJE" style="rounded=0;whiteSpace=wrap;html=1;" parent="1" vertex="1">
                    <mxGeometry x="550" y="-670" width="120" height="60" as="geometry"/>
                </mxCell>
                <mxCell id="167" value="" style="shape=flexArrow;endArrow=classic;html=1;entryX=0.5;entryY=0;entryDx=0;entryDy=0;fillColor=#e51400;strokeColor=#B20000;" parent="1" target="166" edge="1">
                    <mxGeometry width="50" height="50" relative="1" as="geometry">
                        <mxPoint x="720" y="-700" as="sourcePoint"/>
                        <mxPoint x="610" y="-600" as="targetPoint"/>
                    </mxGeometry>
                </mxCell>
                <mxCell id="168" value="" style="shape=flexArrow;endArrow=classic;html=1;entryX=0.5;entryY=0;entryDx=0;entryDy=0;exitX=0.5;exitY=1;exitDx=0;exitDy=0;fillColor=#e51400;strokeColor=#B20000;" parent="1" source="13" target="165" edge="1">
                    <mxGeometry width="50" height="50" relative="1" as="geometry">
                        <mxPoint x="560" y="-550" as="sourcePoint"/>
                        <mxPoint x="610" y="-600" as="targetPoint"/>
                    </mxGeometry>
                </mxCell>
                <mxCell id="169" value="PRZEGLĄDANIE STAŁYCH KLIENTÓW&lt;br&gt;&lt;br&gt;SPRAWDZANIE ICH PŁATNOŚCI / TERMINOWOŚCI" style="whiteSpace=wrap;html=1;aspect=fixed;" parent="1" vertex="1">
                    <mxGeometry x="690" y="-570" width="120" height="120" as="geometry"/>
                </mxCell>
                <mxCell id="170" value="" style="shape=flexArrow;endArrow=classic;html=1;exitX=0.5;exitY=1;exitDx=0;exitDy=0;fillColor=#e3c800;strokeColor=#B09500;" parent="1" source="165" target="169" edge="1">
                    <mxGeometry width="50" height="50" relative="1" as="geometry">
                        <mxPoint x="560" y="-470" as="sourcePoint"/>
                        <mxPoint x="610" y="-520" as="targetPoint"/>
                    </mxGeometry>
                </mxCell>
                <mxCell id="171" value="MOŻLIWOŚĆ DODAWANIA I USUWANIA" style="whiteSpace=wrap;html=1;aspect=fixed;" parent="1" vertex="1">
                    <mxGeometry x="690" y="-400" width="120" height="120" as="geometry"/>
                </mxCell>
                <mxCell id="172" value="" style="shape=flexArrow;endArrow=classic;html=1;exitX=0.5;exitY=1;exitDx=0;exitDy=0;entryX=0.5;entryY=0;entryDx=0;entryDy=0;fillColor=#e3c800;strokeColor=#B09500;" parent="1" source="169" target="171" edge="1">
                    <mxGeometry width="50" height="50" relative="1" as="geometry">
                        <mxPoint x="560" y="-240" as="sourcePoint"/>
                        <mxPoint x="610" y="-290" as="targetPoint"/>
                    </mxGeometry>
                </mxCell>
                <mxCell id="173" value="MOŻLIWOŚĆ EDYCJI + WYŚWIETLENIE WSZYSTKICH INFORMACJI O KLIENTACH" style="whiteSpace=wrap;html=1;aspect=fixed;" parent="1" vertex="1">
                    <mxGeometry x="690" y="-232.5" width="125" height="125" as="geometry"/>
                </mxCell>
                <mxCell id="174" value="" style="shape=flexArrow;endArrow=classic;html=1;exitX=0.5;exitY=1;exitDx=0;exitDy=0;entryX=0.5;entryY=0;entryDx=0;entryDy=0;fillColor=#e51400;strokeColor=#B20000;" parent="1" source="171" target="173" edge="1">
                    <mxGeometry width="50" height="50" relative="1" as="geometry">
                        <mxPoint x="560" y="-280" as="sourcePoint"/>
                        <mxPoint x="610" y="-330" as="targetPoint"/>
                    </mxGeometry>
                </mxCell>
                <mxCell id="175" value="PRZESŁANE REKLAMACJE OD KLIENTÓW (ZBIÓR) + WERDYKT CZY UZNANA REKLAMACJA CZY ODRZUCONA -&amp;gt; UZASADNIENIE I DECYZJA" style="whiteSpace=wrap;html=1;aspect=fixed;" parent="1" vertex="1">
                    <mxGeometry x="545" y="-570" width="130" height="130" as="geometry"/>
                </mxCell>
                <mxCell id="176" value="" style="shape=flexArrow;endArrow=classic;html=1;exitX=0.5;exitY=1;exitDx=0;exitDy=0;fillColor=#e3c800;strokeColor=#B09500;" parent="1" source="166" edge="1">
                    <mxGeometry width="50" height="50" relative="1" as="geometry">
                        <mxPoint x="560" y="-280" as="sourcePoint"/>
                        <mxPoint x="610" y="-570" as="targetPoint"/>
                    </mxGeometry>
                </mxCell>
                <mxCell id="177" value="REKLAMACJA 14 DNI NA DECYZJE POKAZYWANIE O JAKI TOWAR CHODZI KIEDY UPŁYWA TERMIN I DECYZJA&amp;nbsp;" style="whiteSpace=wrap;html=1;aspect=fixed;" parent="1" vertex="1">
                    <mxGeometry x="539" y="-400" width="136" height="136" as="geometry"/>
                </mxCell>
                <mxCell id="178" value="" style="shape=flexArrow;endArrow=classic;html=1;exitX=0.5;exitY=1;exitDx=0;exitDy=0;fillColor=#e51400;strokeColor=#B20000;" parent="1" source="175" edge="1">
                    <mxGeometry width="50" height="50" relative="1" as="geometry">
                        <mxPoint x="560" y="-340" as="sourcePoint"/>
                        <mxPoint x="610" y="-400" as="targetPoint"/>
                    </mxGeometry>
                </mxCell>
                <mxCell id="179" value="MOŻE WYSYŁANIE MAILI O DECYZJI?" style="whiteSpace=wrap;html=1;aspect=fixed;" parent="1" vertex="1">
                    <mxGeometry x="540" y="-220" width="130" height="130" as="geometry"/>
                </mxCell>
                <mxCell id="180" value="" style="shape=flexArrow;endArrow=classic;html=1;exitX=0.5;exitY=1;exitDx=0;exitDy=0;fillColor=#6d8764;strokeColor=#3A5431;" parent="1" source="177" edge="1">
                    <mxGeometry width="50" height="50" relative="1" as="geometry">
                        <mxPoint x="560" y="-140" as="sourcePoint"/>
                        <mxPoint x="607" y="-220" as="targetPoint"/>
                    </mxGeometry>
                </mxCell>
                <mxCell id="181" value="EAN / KOD PRODUKTU/ NAZWA TOWARU / CENA NETTO / CENA BRUTTO / ILOŚĆ MAGAZYNOWA / PRODUCENT" style="whiteSpace=wrap;html=1;aspect=fixed;" parent="1" vertex="1">
                    <mxGeometry x="410" y="-725" width="127.5" height="127.5" as="geometry"/>
                </mxCell>
                <mxCell id="182" value="" style="shape=flexArrow;endArrow=classic;html=1;exitX=0.5;exitY=1;exitDx=0;exitDy=0;entryX=0.5;entryY=0;entryDx=0;entryDy=0;fillColor=#e51400;strokeColor=#B20000;" parent="1" source="11" target="181" edge="1">
                    <mxGeometry width="50" height="50" relative="1" as="geometry">
                        <mxPoint x="410" y="-620" as="sourcePoint"/>
                        <mxPoint x="460" y="-670" as="targetPoint"/>
                    </mxGeometry>
                </mxCell>
                <mxCell id="183" value="MOŻLIWOŚĆ EDYCJI Z RĘKI" style="whiteSpace=wrap;html=1;aspect=fixed;" parent="1" vertex="1">
                    <mxGeometry x="414" y="-570" width="120" height="120" as="geometry"/>
                </mxCell>
                <mxCell id="184" value="" style="shape=flexArrow;endArrow=classic;html=1;exitX=0.5;exitY=1;exitDx=0;exitDy=0;fillColor=#e3c800;strokeColor=#B09500;" parent="1" source="181" edge="1">
                    <mxGeometry width="50" height="50" relative="1" as="geometry">
                        <mxPoint x="410" y="-410" as="sourcePoint"/>
                        <mxPoint x="480" y="-570" as="targetPoint"/>
                    </mxGeometry>
                </mxCell>
                <mxCell id="185" value="USUWANIE / DODAWANIE / EDYCJA POZYCJI" style="whiteSpace=wrap;html=1;aspect=fixed;" parent="1" vertex="1">
                    <mxGeometry x="405" y="-400" width="125" height="125" as="geometry"/>
                </mxCell>
                <mxCell id="186" value="" style="shape=flexArrow;endArrow=classic;html=1;exitX=0.5;exitY=1;exitDx=0;exitDy=0;entryX=0.5;entryY=0;entryDx=0;entryDy=0;fillColor=#e51400;strokeColor=#B20000;" parent="1" source="183" target="185" edge="1">
                    <mxGeometry width="50" height="50" relative="1" as="geometry">
                        <mxPoint x="510" y="-460" as="sourcePoint"/>
                        <mxPoint x="560" y="-510" as="targetPoint"/>
                    </mxGeometry>
                </mxCell>
                <mxCell id="187" value="SZYBKIE FILTORWANIE PRODUKTÓW / SORTOWANIE / WYSZUKIWANIE PO NP. NAZWIE / EANIE / KODZIE PRODUKTU" style="shape=card;whiteSpace=wrap;html=1;fillColor=#e51400;fontColor=#ffffff;strokeColor=#B20000;" parent="1" vertex="1">
                    <mxGeometry x="394" y="-232.5" width="126" height="152.5" as="geometry"/>
                </mxCell>
                <mxCell id="188" value="" style="shape=flexArrow;endArrow=classic;html=1;exitX=0.5;exitY=1;exitDx=0;exitDy=0;entryX=0;entryY=0;entryDx=78;entryDy=0;entryPerimeter=0;fillColor=#e51400;strokeColor=#B20000;" parent="1" source="185" target="187" edge="1">
                    <mxGeometry width="50" height="50" relative="1" as="geometry">
                        <mxPoint x="510" y="-360" as="sourcePoint"/>
                        <mxPoint x="560" y="-410" as="targetPoint"/>
                    </mxGeometry>
                </mxCell>
                <mxCell id="189" value="MOŻLIWOŚĆ USTAWIENIA PROGRAMU NA TRYB CIEMNY" style="ellipse;whiteSpace=wrap;html=1;" parent="1" vertex="1">
                    <mxGeometry x="274" y="-790" width="120" height="80" as="geometry"/>
                </mxCell>
                <mxCell id="190" value="" style="shape=flexArrow;endArrow=classic;html=1;exitX=0.5;exitY=1;exitDx=0;exitDy=0;entryX=0.5;entryY=0;entryDx=0;entryDy=0;fillColor=#e3c800;strokeColor=#B09500;" parent="1" source="9" target="189" edge="1">
                    <mxGeometry width="50" height="50" relative="1" as="geometry">
                        <mxPoint x="510" y="-520" as="sourcePoint"/>
                        <mxPoint x="560" y="-570" as="targetPoint"/>
                    </mxGeometry>
                </mxCell>
                <mxCell id="193" value="" style="edgeStyle=none;html=1;" parent="1" source="191" target="189" edge="1">
                    <mxGeometry relative="1" as="geometry"/>
                </mxCell>
                <mxCell id="191" value="JAKIEŚ USTAWIENIA POD SIEBIE : MOZE ROZMIAR CZCIONKI / POWIĘKSZANIE / USTAWIENIA PODSTAWOWE?" style="whiteSpace=wrap;html=1;aspect=fixed;" parent="1" vertex="1">
                    <mxGeometry x="274" y="-680" width="120" height="120" as="geometry"/>
                </mxCell>
                <mxCell id="192" value="" style="shape=flexArrow;endArrow=classic;html=1;exitX=0.5;exitY=1;exitDx=0;exitDy=0;entryX=0.5;entryY=0;entryDx=0;entryDy=0;fillColor=#e51400;strokeColor=#B20000;" parent="1" source="189" target="191" edge="1">
                    <mxGeometry width="50" height="50" relative="1" as="geometry">
                        <mxPoint x="510" y="-580" as="sourcePoint"/>
                        <mxPoint x="560" y="-630" as="targetPoint"/>
                    </mxGeometry>
                </mxCell>
                <mxCell id="194" value="WYSTAWIENIE FAKTURY DLA FIRMY PO NIPIE ZACIĄGNIECIE DANYCH Z GUS LUB WPROWADZENIE RĘĆZNIE DANYCH" style="rounded=1;whiteSpace=wrap;html=1;fillColor=#647687;fontColor=#ffffff;strokeColor=#314354;" parent="1" vertex="1">
                    <mxGeometry x="-40" y="-880" width="150" height="100" as="geometry"/>
                </mxCell>
                <mxCell id="195" value="" style="shape=flexArrow;endArrow=classic;html=1;exitX=0;exitY=0.25;exitDx=0;exitDy=0;entryX=0.5;entryY=0;entryDx=0;entryDy=0;fillColor=#e51400;strokeColor=#B20000;" parent="1" source="7" target="194" edge="1">
                    <mxGeometry width="50" height="50" relative="1" as="geometry">
                        <mxPoint x="160" y="-580" as="sourcePoint"/>
                        <mxPoint x="210" y="-630" as="targetPoint"/>
                    </mxGeometry>
                </mxCell>
                <mxCell id="196" value="KTO WYSTAWIŁ FAKTURĘ / KOMU WYSTAWIŁ FAKTURĘ LUB PARAGON" style="rounded=1;whiteSpace=wrap;html=1;fillColor=#647687;fontColor=#ffffff;strokeColor=#314354;" parent="1" vertex="1">
                    <mxGeometry x="45" y="-720" width="160" height="85" as="geometry"/>
                </mxCell>
                <mxCell id="197" value="" style="shape=flexArrow;endArrow=classic;html=1;exitX=0.5;exitY=1;exitDx=0;exitDy=0;entryX=0.5;entryY=0;entryDx=0;entryDy=0;fillColor=#e51400;strokeColor=#B20000;" parent="1" source="194" target="196" edge="1">
                    <mxGeometry width="50" height="50" relative="1" as="geometry">
                        <mxPoint x="160" y="-620" as="sourcePoint"/>
                        <mxPoint x="210" y="-670" as="targetPoint"/>
                    </mxGeometry>
                </mxCell>
                <mxCell id="198" value="JAKIE PRODUKTU ZOSTALY SPRZEDANE" style="rounded=1;whiteSpace=wrap;html=1;fillColor=#647687;fontColor=#ffffff;strokeColor=#314354;" parent="1" vertex="1">
                    <mxGeometry x="234" y="-510" width="126" height="80" as="geometry"/>
                </mxCell>
                <mxCell id="199" value="" style="shape=flexArrow;endArrow=classic;html=1;exitX=0.5;exitY=1;exitDx=0;exitDy=0;entryX=0.5;entryY=0;entryDx=0;entryDy=0;fillColor=#e51400;strokeColor=#B20000;" parent="1" source="196" target="198" edge="1">
                    <mxGeometry width="50" height="50" relative="1" as="geometry">
                        <mxPoint x="160" y="-400" as="sourcePoint"/>
                        <mxPoint x="210" y="-450" as="targetPoint"/>
                    </mxGeometry>
                </mxCell>
                <mxCell id="200" value="USTAWIANIE CENY NA DOWODZIE ZAKUPU ( POKAZYWANIE MARŻY ILE ZAROBKU JEST NA PRODUKCIE )" style="rounded=1;whiteSpace=wrap;html=1;fillColor=#647687;fontColor=#ffffff;strokeColor=#314354;" parent="1" vertex="1">
                    <mxGeometry x="234" y="-374" width="146" height="184" as="geometry"/>
                </mxCell>
                <mxCell id="201" value="" style="shape=flexArrow;endArrow=classic;html=1;exitX=0.5;exitY=1;exitDx=0;exitDy=0;entryX=0.5;entryY=0;entryDx=0;entryDy=0;fillColor=#e51400;strokeColor=#B20000;" parent="1" source="198" target="200" edge="1">
                    <mxGeometry width="50" height="50" relative="1" as="geometry">
                        <mxPoint x="160" y="-410" as="sourcePoint"/>
                        <mxPoint x="210" y="-460" as="targetPoint"/>
                    </mxGeometry>
                </mxCell>
                <mxCell id="202" value="POKAZANIE CAŁEGO DOKUMENTU W JAKIŚFORMACIE PLIKU KTÓRY MOŻNA WYSŁAĆ LUB WYDRUKOWAĆ NP W PDF" style="whiteSpace=wrap;html=1;aspect=fixed;fillColor=#647687;fontColor=#ffffff;strokeColor=#314354;" parent="1" vertex="1">
                    <mxGeometry x="235" y="-10" width="170" height="170" as="geometry"/>
                </mxCell>
                <mxCell id="203" value="" style="shape=flexArrow;endArrow=classic;html=1;exitX=0.5;exitY=1;exitDx=0;exitDy=0;entryX=0.5;entryY=0;entryDx=0;entryDy=0;fillColor=#e51400;strokeColor=#B20000;" parent="1" source="200" target="202" edge="1">
                    <mxGeometry width="50" height="50" relative="1" as="geometry">
                        <mxPoint x="160" y="30" as="sourcePoint"/>
                        <mxPoint x="210" y="-20" as="targetPoint"/>
                    </mxGeometry>
                </mxCell>
                <mxCell id="204" value="CAŁOŚĆ JEST ZAPISYWANA W PROGRAMIE I DOSTEPNA Z PUNKTU PRZEGLĄDANIA FAKTUR PARAGONOW LUB INNYCH / ZAPISYWANA W BAZIE MOZNA USUWAC DODAWAC EDYTOWAC&amp;nbsp;" style="ellipse;whiteSpace=wrap;html=1;aspect=fixed;fillColor=#e3c800;fontColor=#000000;strokeColor=#B09500;" parent="1" vertex="1">
                    <mxGeometry x="204" y="200" width="260" height="260" as="geometry"/>
                </mxCell>
                <mxCell id="205" value="" style="shape=flexArrow;endArrow=classic;html=1;exitX=1;exitY=0.5;exitDx=0;exitDy=0;entryX=1;entryY=0.5;entryDx=0;entryDy=0;fillColor=#e51400;strokeColor=#B20000;" parent="1" source="202" target="204" edge="1">
                    <mxGeometry width="50" height="50" relative="1" as="geometry">
                        <mxPoint x="160" y="120" as="sourcePoint"/>
                        <mxPoint x="210" y="70" as="targetPoint"/>
                        <Array as="points"/>
                    </mxGeometry>
                </mxCell>
                <mxCell id="206" value="WSZYSTKO BĘDZIE SIĘ DZIAŁO&lt;br&gt;&amp;nbsp;W BAZIE DANYCH ABY MIEĆ&lt;br&gt;&amp;nbsp;DOSTĘP DO KAŻDEGO&lt;br&gt;&amp;nbsp;ELEMENTU Z KODU PYTHON" style="ellipse;shape=cloud;whiteSpace=wrap;html=1;fillColor=#e3c800;fontColor=#000000;strokeColor=#B09500;" parent="1" vertex="1">
                    <mxGeometry x="-290" y="-1780" width="300" height="210" as="geometry"/>
                </mxCell>
                <mxCell id="207" value="" style="shape=flexArrow;endArrow=classic;html=1;entryX=0.31;entryY=0.8;entryDx=0;entryDy=0;entryPerimeter=0;fillColor=#e51400;strokeColor=#B20000;" parent="1" target="206" edge="1">
                    <mxGeometry width="50" height="50" relative="1" as="geometry">
                        <mxPoint x="-230" y="-1440" as="sourcePoint"/>
                        <mxPoint x="-180" y="-1490" as="targetPoint"/>
                    </mxGeometry>
                </mxCell>
                <mxCell id="208" value="WAŻNE" style="text;html=1;strokeColor=#B09500;fillColor=#e3c800;align=center;verticalAlign=middle;whiteSpace=wrap;rounded=0;fontColor=#000000;" parent="1" vertex="1">
                    <mxGeometry x="-260" y="-1450" width="60" height="30" as="geometry"/>
                </mxCell>
            </root>
        </mxGraphModel>
    </diagram>
</mxfile>